<svg
   height="150"
   id="svg1"
   inkscape:version="1.4.2 (ebf0e940d0, 2025-05-08)"
   sodipodi:docname="DriftwoodLogo-cropped.svg"
   version="1.1"
   viewBox="30.254237 66.528 150 150"
   width="150"
   xml:space="preserve"
   xmlns="http://www.w3.org/2000/svg"
   xmlns:inkscape="http://www.inkscape.org/namespaces/inkscape"
   xmlns:sodipodi="http://sodipodi.sourceforge.net/DTD/sodipodi-0.dtd"
   xmlns:svg="http://www.w3.org/2000/svg"><title>Driftwood Logo</title><sodipodi:namedview
     bordercolor="#eeeeee"
     borderopacity="1"
     id="namedview1"
     inkscape:current-layer="svg1" 
     inkscape:cx="77.322149"
     inkscape:cy="60.190211"
     inkscape:deskcolor="#505050"
     inkscape:pagecheckerboard="0"
     inkscape:pageopacity="0"
     inkscape:showpageshadow="0"
     inkscape:window-height="1134"
     inkscape:window-maximized="1"
     inkscape:window-width="1920"
     inkscape:window-x="0"
     inkscape:window-y="0"
     inkscape:zoom="4.3777883"
     pagecolor="#505050"/><defs
     id="defs1"><clipPath
       clipPathUnits="userSpaceOnUse"
       id="clipPath5"><path
         d="m 104.99979,75.616573 v 84.138537 c 23.23439,2.1e-4 42.06971,-18.83488 42.06979,-42.06927 -8e-5,-23.234386 -18.8354,-42.069476 -42.06979,-42.069267 z m 138.1605,0 v 84.138537 c -23.23439,2.1e-4 -42.06971,-18.83488 -42.06979,-42.06927 8e-5,-23.234386 18.8354,-42.069476 42.06979,-42.069267 z m 0,0 v 84.138537 c -23.23439,2.1e-4 -42.06971,-18.83488 -42.06979,-42.06927 8e-5,-23.234386 18.8354,-42.069476 42.06979,-42.069267 z m -138.1605,0 v 84.138537 c 23.23439,2.1e-4 42.06971,-18.83488 42.06979,-42.06927 -8e-5,-23.234386 -18.8354,-42.069476 -42.06979,-42.069267 z"
         data-darkreader-inline-fill="" 
         id="path6"
         style="fill:#ff0000;stroke-width:0.264583"/></clipPath></defs><g
     id="layer2-1"
     inkscape:label="logo"
     style="display:inline"
     transform="matrix(1.0739548,0,0,1.0739548,-7.5110236,-14.680783)"><path
       d="M 104.9998,75.616572 A 42.069412,42.069412 0 0 0 67.738921,98.154984 c -0.894579,-1.468321 -2.080577,-2.942742 -3.639389,-4.428442 -8.57698,-8.174702 -22.621566,-5.180668 -27.208086,8.720078 -1.25769,3.81179 16.058745,-14.908132 21.438405,-2.474327 2.12796,4.918287 -5.207094,16.679257 -0.623834,32.534277 1.82734,6.32137 13.818158,20.90556 34.499548,31.1774 7.40432,3.67751 4.19595,16.9275 3.36426,28.69831 -0.83927,11.87803 -0.812901,19.31441 -24.760751,21.70632 v 1.19865 L 105,214.87248 l 34.19093,0.41477 v -1.19865 c -23.94785,-2.39191 -23.92148,-9.82829 -24.76075,-21.70632 -0.83169,-11.77081 -4.04006,-25.0208 3.36426,-28.69831 20.68139,-10.27184 32.67221,-24.85603 34.49955,-31.1774 4.58326,-15.85502 -2.75179,-27.61599 -0.62383,-32.534277 5.37966,-12.433805 22.69609,6.286117 21.4384,2.474327 -4.58652,-13.900746 -18.6311,-16.89478 -27.20808,-8.720078 -1.55882,1.4857 -2.74481,2.960121 -3.63939,4.428442 a 42.069412,42.069412 0 0 0 -37.26088,-22.538412 42.069412,42.069412 0 0 0 -4.1e-4,0 z" 
       id="path2-2"
       style="fill:#000000;stroke:none;stroke-width:0.264583"/><path
       clip-path="none"
       d="m 129.75172,83.664715 c -2.53446,1.052191 -8.57961,3.849333 -10.71123,7.371129 -2.72587,4.503615 -4.45404,13.885696 -2.84445,18.251436 1.03716,2.81314 -3.19994,9.8369 -4.97769,11.49613 -0.54428,0.508 -2.40142,3.59403 3.71297,5.40383 1.00596,0.29775 0.52319,1.66606 0.17527,2.43515 -0.34793,0.7691 -0.56107,0.93902 -0.19323,1.90429 0.20333,0.59545 1.04244,0.65426 1.77336,0.96695 1.13638,0.48615 -1.28374,0.37164 -1.41491,1.39523 -0.18304,1.42842 1.84077,2.13627 2.25004,2.3148 2.53141,1.10426 -0.95869,2.24384 0.61633,6.06764 0.43036,1.04484 3.20817,2.05392 6.36723,2.49595 0.50662,-0.22521 1.01667,-0.45934 1.52929,-0.70279 7.1933,-3.41626 10.87475,-9.60487 12.89653,-14.47759 4.52376,-10.90273 -2.7098,-20.53098 3.33503,-30.44031 -10e-6,-2.7e-5 2e-5,-7.4e-5 0,-1.01e-4 -0.75342,-1.433984 -1.58711,-2.819087 -2.49523,-4.149457 -0.90812,-1.33037 -1.89062,-2.605955 -2.94147,-3.820744 -1.05086,-1.21479 -2.17015,-2.368761 -3.35178,-3.456004 -1.18162,-1.087242 -2.42563,-2.10781 -3.72606,-3.055539 z" 
       id="path1-7"
       style="display:inline;fill:#598c51;fill-opacity:1;stroke:none;stroke-width:0.264583"/><path
       clip-path="none"
       d="m 129.75172,83.664715 c 3.90129,2.843202 7.29493,6.341153 10.0193,10.332287 0.90812,1.330378 1.74192,2.715565 2.49534,4.149558 -6.04475,9.9093 1.18862,19.53761 -3.33514,30.44031 -2.02178,4.87272 -5.70323,11.06133 -12.89653,14.47759 -0.51261,0.24345 -1.02267,0.47758 -1.52929,0.70279 -3.15906,-0.44203 -5.93687,-1.45111 -6.36723,-2.49595 -1.57502,-3.8238 1.91508,-4.96338 -0.61633,-6.06764 -0.40927,-0.17853 -2.43308,-0.88638 -2.25004,-2.3148 0.13117,-1.02359 2.5513,-0.90908 1.41492,-1.39523 -0.73092,-0.31269 -1.57004,-0.3715 -1.77337,-0.96695 -0.36784,-0.96527 -0.1547,-1.13519 0.19323,-1.90429 0.34792,-0.76909 0.83069,-2.1374 -0.17527,-2.43515 -6.11439,-1.8098 -4.25724,-4.89583 -3.71296,-5.40383 1.77775,-1.65923 6.01484,-8.68299 4.97768,-11.49613 -1.60959,-4.36574 0.11858,-13.747821 2.84445,-18.251436 2.13162,-3.521799 8.17677,-6.31894 10.71124,-7.371129 z"
       id="path5-0"
       style="display:inline;fill:#98cdbf;fill-opacity:1;stroke-width:0.264583"
       transform="matrix(-1,0,0,1,210,0)" /></g></svg>
